<svg width="12" height="14" viewBox="0 0 12 14" fill="none" xmlns="http://www.w3.org/2000/svg">
<g clip-path="url(#clip0_455_6978)">
<path d="M5.98667 14C5.70667 14 5.42667 13.9172 5.19333 13.7453C3.61333 12.4466 0 9.10414 0 5.72988C0 2.57208 2.69333 0 6 0C9.30667 0 12 2.57208 12 5.72988C12 9.10414 8.38667 12.4466 6.83333 13.7262C6.57333 13.9109 6.28 14.0064 5.98667 14.0064V14ZM6 1.27331C3.42667 1.27331 1.33333 3.2724 1.33333 5.72988C1.33333 8.62665 4.86 11.7844 6 12.7331C7.14 11.7844 10.6667 8.62665 10.6667 5.72988C10.6667 3.2724 8.57333 1.27331 6 1.27331Z" fill="black"/>
<path d="M5.99998 8.27633C4.52665 8.27633 3.33331 7.13672 3.33331 5.72972C3.33331 4.32271 4.52665 3.18311 5.99998 3.18311C7.47331 3.18311 8.66665 4.32271 8.66665 5.72972C8.66665 7.13672 7.47331 8.27633 5.99998 8.27633ZM5.99998 4.45641C5.26665 4.45641 4.66665 5.0294 4.66665 5.72972C4.66665 6.43004 5.26665 7.00302 5.99998 7.00302C6.73331 7.00302 7.33331 6.43004 7.33331 5.72972C7.33331 5.0294 6.73331 4.45641 5.99998 4.45641Z" fill="black"/>
</g>
<defs>
<clipPath id="clip0_455_6978">
<rect width="12" height="14" fill="white"/>
</clipPath>
</defs>
</svg>
