<svg width="12" height="14" viewBox="0 0 12 14" fill="none" xmlns="http://www.w3.org/2000/svg">
<g clip-path="url(#clip0_455_6981)">
<path d="M10.2 1.27273H9V0.636364C9 0.286364 8.73 0 8.4 0C8.07 0 7.8 0.286364 7.8 0.636364V1.27273H4.2V0.636364C4.2 0.286364 3.93 0 3.6 0C3.27 0 3 0.286364 3 0.636364V1.27273H1.8C0.81 1.27273 0 2.13182 0 3.18182V12.0909C0 13.1409 0.81 14 1.8 14H10.2C11.19 14 12 13.1409 12 12.0909V3.18182C12 2.13182 11.19 1.27273 10.2 1.27273ZM1.8 2.54545H3V3.18182C3 3.53182 3.27 3.81818 3.6 3.81818C3.93 3.81818 4.2 3.53182 4.2 3.18182V2.54545H7.8V3.18182C7.8 3.53182 8.07 3.81818 8.4 3.81818C8.73 3.81818 9 3.53182 9 3.18182V2.54545H10.2C10.53 2.54545 10.8 2.83182 10.8 3.18182V5.09091H1.2V3.18182C1.2 2.83182 1.47 2.54545 1.8 2.54545ZM10.2 12.7273H1.8C1.47 12.7273 1.2 12.4409 1.2 12.0909V6.36364H10.8V12.0909C10.8 12.4409 10.53 12.7273 10.2 12.7273Z" fill="black"/>
<path d="M3.60598 7.63623C3.27598 7.63623 3.00598 7.92259 3.00598 8.27259C3.00598 8.62259 3.27598 8.90896 3.60598 8.90896C3.93598 8.90896 4.20598 8.62259 4.20598 8.27259C4.20598 7.92259 3.93598 7.63623 3.60598 7.63623Z" fill="black"/>
<path d="M6.00601 7.63623C5.67601 7.63623 5.40601 7.92259 5.40601 8.27259C5.40601 8.62259 5.67601 8.90896 6.00601 8.90896C6.33601 8.90896 6.60601 8.62259 6.60601 8.27259C6.60601 7.92259 6.33601 7.63623 6.00601 7.63623Z" fill="black"/>
<path d="M8.40603 7.63623C8.07603 7.63623 7.80603 7.92259 7.80603 8.27259C7.80603 8.62259 8.07603 8.90896 8.40603 8.90896C8.73603 8.90896 9.00603 8.62259 9.00603 8.27259C9.00603 7.92259 8.73603 7.63623 8.40603 7.63623Z" fill="black"/>
<path d="M3.60598 10.1816C3.27598 10.1816 3.00598 10.468 3.00598 10.818C3.00598 11.168 3.27598 11.4544 3.60598 11.4544C3.93598 11.4544 4.20598 11.168 4.20598 10.818C4.20598 10.468 3.93598 10.1816 3.60598 10.1816Z" fill="black"/>
<path d="M6.00601 10.1816C5.67601 10.1816 5.40601 10.468 5.40601 10.818C5.40601 11.168 5.67601 11.4544 6.00601 11.4544C6.33601 11.4544 6.60601 11.168 6.60601 10.818C6.60601 10.468 6.33601 10.1816 6.00601 10.1816Z" fill="black"/>
<path d="M8.40603 10.1816C8.07603 10.1816 7.80603 10.468 7.80603 10.818C7.80603 11.168 8.07603 11.4544 8.40603 11.4544C8.73603 11.4544 9.00603 11.168 9.00603 10.818C9.00603 10.468 8.73603 10.1816 8.40603 10.1816Z" fill="black"/>
</g>
<defs>
<clipPath id="clip0_455_6981">
<rect width="12" height="14" fill="white"/>
</clipPath>
</defs>
</svg>
