<svg width="29" height="21" viewBox="0 0 29 21" fill="none" xmlns="http://www.w3.org/2000/svg">
<rect x="1" width="26" height="1" fill="black"/>
<rect x="1" y="5" width="26" height="1" fill="black"/>
<path d="M4.884 18.658H4.895L7.502 12.212H8.712V20H7.92V13.235H7.898L5.082 20H4.664L1.848 13.235H1.826V20H1.034V12.212H2.244L4.884 18.658ZM14.5502 17.03C14.5282 16.546 14.3705 16.1463 14.0772 15.831C13.7912 15.5083 13.3805 15.347 12.8452 15.347C12.5958 15.347 12.3648 15.3947 12.1522 15.49C11.9395 15.578 11.7525 15.7027 11.5912 15.864C11.4298 16.018 11.3015 16.1977 11.2062 16.403C11.1108 16.601 11.0558 16.81 11.0412 17.03H14.5502ZM15.3092 17.272C15.3092 17.3233 15.3092 17.3783 15.3092 17.437C15.3092 17.4957 15.3055 17.558 15.2982 17.624H11.0302C11.0375 17.8807 11.0888 18.1227 11.1842 18.35C11.2795 18.5773 11.4115 18.7753 11.5802 18.944C11.7488 19.1127 11.9468 19.2483 12.1742 19.351C12.4015 19.4463 12.6472 19.494 12.9112 19.494C13.2998 19.494 13.6335 19.406 13.9122 19.23C14.1982 19.0467 14.4145 18.8377 14.5612 18.603L15.1222 19.043C14.8142 19.4317 14.4732 19.7103 14.0992 19.879C13.7325 20.0477 13.3365 20.132 12.9112 20.132C12.5298 20.132 12.1742 20.066 11.8442 19.934C11.5215 19.7947 11.2428 19.604 11.0082 19.362C10.7735 19.12 10.5865 18.834 10.4472 18.504C10.3152 18.174 10.2492 17.8147 10.2492 17.426C10.2492 17.0373 10.3152 16.678 10.4472 16.348C10.5792 16.018 10.7625 15.732 10.9972 15.49C11.2318 15.248 11.5068 15.061 11.8222 14.929C12.1375 14.7897 12.4785 14.72 12.8452 14.72C13.2485 14.72 13.6042 14.7897 13.9122 14.929C14.2202 15.061 14.4768 15.2443 14.6822 15.479C14.8875 15.7063 15.0415 15.974 15.1442 16.282C15.2542 16.59 15.3092 16.92 15.3092 17.272ZM17.4791 14.852C17.4938 14.9913 17.5048 15.1453 17.5121 15.314C17.5194 15.4827 17.5231 15.622 17.5231 15.732H17.5451C17.6918 15.4313 17.9301 15.1893 18.2601 15.006C18.5901 14.8153 18.9384 14.72 19.3051 14.72C19.9578 14.72 20.4454 14.9143 20.7681 15.303C21.0981 15.6917 21.2631 16.205 21.2631 16.843V20H20.5151V17.151C20.5151 16.8797 20.4931 16.634 20.4491 16.414C20.4051 16.194 20.3281 16.007 20.2181 15.853C20.1154 15.6917 19.9724 15.567 19.7891 15.479C19.6131 15.391 19.3894 15.347 19.1181 15.347C18.9201 15.347 18.7258 15.3873 18.5351 15.468C18.3518 15.5487 18.1868 15.6733 18.0401 15.842C17.8934 16.0033 17.7761 16.2123 17.6881 16.469C17.6001 16.7183 17.5561 17.0153 17.5561 17.36V20H16.8081V15.985C16.8081 15.8457 16.8044 15.666 16.7971 15.446C16.7898 15.226 16.7788 15.028 16.7641 14.852H17.4791ZM26.8297 20C26.815 19.8607 26.804 19.7067 26.7967 19.538C26.7894 19.3693 26.7857 19.23 26.7857 19.12H26.7637C26.617 19.4207 26.3787 19.6663 26.0487 19.857C25.7187 20.0403 25.3704 20.132 25.0037 20.132C24.351 20.132 23.8597 19.9377 23.5297 19.549C23.207 19.1603 23.0457 18.647 23.0457 18.009V14.852H23.7937V17.701C23.7937 17.9723 23.8157 18.218 23.8597 18.438C23.9037 18.658 23.977 18.8487 24.0797 19.01C24.1897 19.164 24.3327 19.285 24.5087 19.373C24.692 19.461 24.9194 19.505 25.1907 19.505C25.3887 19.505 25.5794 19.4647 25.7627 19.384C25.9534 19.3033 26.122 19.1823 26.2687 19.021C26.4154 18.8523 26.5327 18.6433 26.6207 18.394C26.7087 18.1373 26.7527 17.8367 26.7527 17.492V14.852H27.5007V18.867C27.5007 19.0063 27.5044 19.186 27.5117 19.406C27.519 19.626 27.53 19.824 27.5447 20H26.8297Z" fill="black"/>
</svg>
