<svg width="20" height="20" viewBox="0 0 20 20" fill="none" xmlns="http://www.w3.org/2000/svg">
<g clip-path="url(#clip0_455_6956)">
<path d="M10.0001 1.80189C12.6707 1.80189 12.9868 1.81211 14.0407 1.86048C15.0156 1.90476 15.5449 2.06758 15.8978 2.20519C16.3645 2.3864 16.6976 2.60304 17.0478 2.9532C17.398 3.30336 17.6146 3.63649 17.7958 4.10314C17.9328 4.45603 18.0956 4.98535 18.1406 5.96022C18.1883 7.01478 18.1992 7.33088 18.1992 10.0007C18.1992 12.6705 18.1889 12.9873 18.1406 14.0411C18.0956 15.016 17.9335 15.5453 17.7958 15.8982C17.6146 16.3649 17.398 16.698 17.0478 17.0482C16.6983 17.3976 16.3645 17.615 15.8978 17.7962C15.5456 17.9331 15.0156 18.0959 14.0407 18.1409C12.9861 18.1886 12.67 18.1988 10.0001 18.1988C7.33019 18.1988 7.01341 18.1886 5.95948 18.1409C4.98459 18.0966 4.45524 17.9338 4.10303 17.7962C3.63568 17.615 3.30322 17.3976 2.95304 17.0482C2.60287 16.698 2.38623 16.3649 2.20501 15.8982C2.06808 15.546 1.90525 15.0167 1.86029 14.0411C1.8126 12.9866 1.80238 12.6705 1.80238 10.0007C1.80238 7.33088 1.8126 7.0141 1.86029 5.96022C1.90525 4.98535 2.06808 4.45603 2.20501 4.10314C2.38623 3.63649 2.60287 3.30336 2.95304 2.9532C3.30322 2.60304 3.63568 2.3864 4.10303 2.20519C4.45524 2.06826 4.98527 1.90544 5.95948 1.86048C7.01409 1.81211 7.33019 1.80189 10.0001 1.80189ZM10.0001 0C7.28387 0 6.94392 0.0115812 5.87705 0.0599496C4.81291 0.108318 4.08599 0.277948 3.44969 0.524559C2.79227 0.780026 2.23431 1.12201 1.67839 1.67791C1.12248 2.2338 0.78048 2.79174 0.525004 3.44915C0.277703 4.08543 0.108749 4.81232 0.0603789 5.87642C0.0113275 6.94325 0.000427246 7.28387 0.000427246 9.99932C0.000427246 12.7148 0.0120088 13.0554 0.0603789 14.1222C0.108749 15.1863 0.277703 15.9132 0.525004 16.5495C0.78048 17.2069 1.12248 17.7648 1.67839 18.3207C2.23431 18.8766 2.79227 19.2186 3.44969 19.4741C4.08599 19.7214 4.81291 19.8903 5.87705 19.9387C6.94392 19.9871 7.28455 19.9986 10.0001 19.9986C12.7156 19.9986 13.0563 19.9871 14.1231 19.9387C15.1873 19.8903 15.9142 19.7207 16.5505 19.4741C17.2079 19.2186 17.7659 18.8766 18.3218 18.3207C18.8777 17.7648 19.2197 17.2069 19.4752 16.5495C19.7225 15.9132 19.8914 15.1863 19.9398 14.1222C19.9882 13.0554 19.9997 12.7148 19.9997 9.99932C19.9997 7.28387 19.9882 6.94325 19.9398 5.87642C19.8914 4.81232 19.7218 4.08543 19.4752 3.44915C19.2197 2.79174 18.8777 2.2338 18.3218 1.67791C17.7659 1.12201 17.2079 0.780026 16.5505 0.524559C15.9142 0.277267 15.1873 0.108318 14.1231 0.0599496C13.0563 0.0115812 12.7156 0 10.0001 0Z" fill="#333333"/>
<path d="M10.0003 4.86475C7.16421 4.86475 4.86493 7.16395 4.86493 9.99997C4.86493 12.836 7.16421 15.1352 10.0003 15.1352C12.8365 15.1352 15.1357 12.836 15.1357 9.99997C15.1357 7.16395 12.8365 4.86475 10.0003 4.86475ZM10.0003 13.3333C8.15954 13.3333 6.66688 11.8407 6.66688 9.99997C6.66688 8.15925 8.15886 6.66664 10.0003 6.66664C11.8418 6.66664 13.3338 8.15925 13.3338 9.99997C13.3338 11.8407 11.8418 13.3333 10.0003 13.3333Z" fill="#333333"/>
<path d="M16.5385 4.66159C16.5385 5.32444 16.001 5.86194 15.3388 5.86194C14.6766 5.86194 14.1384 5.32444 14.1384 4.66159C14.1384 3.99874 14.6759 3.46191 15.3388 3.46191C16.0016 3.46191 16.5385 3.99942 16.5385 4.66159Z" fill="#333333"/>
</g>
<defs>
<clipPath id="clip0_455_6956">
<rect width="20" height="20" fill="white"/>
</clipPath>
</defs>
</svg>
