<svg width="14" height="16" viewBox="0 0 14 16" fill="none" xmlns="http://www.w3.org/2000/svg">
<g clip-path="url(#clip0_455_6960)">
<path d="M7.43549 0H10.1422C10.4059 2.30911 11.7403 3.52437 14 3.8423V6.49476C12.6271 6.55631 11.415 6.10285 10.226 5.34387C10.209 5.53418 10.1858 5.67254 10.1858 5.81033C10.1835 7.49769 10.1909 9.18505 10.183 10.8718C10.1688 13.718 8.12533 15.7978 5.16336 15.9915C2.79561 16.1463 0.423319 14.0884 0.0503857 11.5574C-0.394984 8.53337 2.16518 5.70924 5.22052 5.8572C5.38633 5.86511 5.55101 5.89842 5.74229 5.92327V8.61243C5.59742 8.61243 5.45424 8.61921 5.31163 8.6113C3.93138 8.53732 2.82786 9.49225 2.77806 10.8063C2.73053 12.06 3.7203 13.1454 4.95228 13.1917C6.34611 13.2442 7.42077 12.2695 7.42813 10.8798C7.44567 7.5056 7.43492 4.13087 7.43549 0.75615C7.43549 0.514453 7.43549 0.273321 7.43549 0Z" fill="#333333"/>
</g>
<defs>
<clipPath id="clip0_455_6960">
<rect width="14" height="16" fill="white"/>
</clipPath>
</defs>
</svg>
