<svg width="103" height="58" viewBox="0 0 103 58" fill="none" xmlns="http://www.w3.org/2000/svg">
<path d="M1.51173e-06 40.7078L3.91295e-07 53.5241C2.49315 53.5241 4.51374 55.5277 4.51374 58L98.4863 58C98.4863 55.5278 100.507 53.5241 103 53.5241L103 40.7078C103 40.7078 103 35.466 103 29C103 22.534 103 17.2922 103 17.2922L103 4.47589C100.507 4.47589 98.4863 2.47224 98.4863 -3.94603e-07L4.51375 -8.60994e-06C4.51375 2.47224 2.49315 4.47588 4.67923e-06 4.47588L3.55879e-06 17.2922C6.52072 17.2922 11.8073 22.5345 11.8073 29.0006C11.8073 35.4666 6.52072 40.7089 1.51164e-06 40.7089L1.51173e-06 40.7078Z" fill="#E3CA95"/>
</svg>
