<svg width="294" height="149" viewBox="0 0 294 149" fill="none" xmlns="http://www.w3.org/2000/svg">
<path d="M3.48414e-05 44.4232L3.16367e-05 11.4984C3.16367e-05 11.4984 3.11357e-05 6.35113 3.05176e-05 2.2074e-05L281.116 1.01168e-06C281.116 6.35111 286.884 11.4984 294 11.4984L294 44.4231C275.387 44.4231 260.298 57.8904 260.298 74.5014C260.298 91.1125 275.387 104.577 294 104.577L294 137.502C286.884 137.502 281.116 142.649 281.116 149L4.502e-05 149C4.44018e-05 142.649 4.39008e-05 137.502 4.39008e-05 137.502L4.06962e-05 104.577C4.06962e-05 104.577 3.93854e-05 91.1096 3.77686e-05 74.4986C3.61519e-05 57.8875 3.48414e-05 44.4232 3.48411e-05 44.4203L3.48414e-05 44.4232Z" fill="#E3CA95"/>
</svg>
