<?xml version="1.0" encoding="UTF-8"?>
<svg id="Layer_1" data-name="Layer 1" xmlns="http://www.w3.org/2000/svg" viewBox="0 0 477.5 270.07">
  <g>
    <polygon points="7.92 243.82 32.46 243.82 32.46 251.34 0 251.34 0 195.92 7.92 195.92 7.92 243.82" fill="#f5d7d7"/>
    <polygon points="213.55 195.92 251.55 195.92 251.55 203.44 236.51 203.44 236.51 251.34 228.59 251.34 228.59 203.44 213.55 203.44 213.55 195.92" fill="#f5d7d7"/>
    <path d="M46.53,195.92c2.77,0,4.99,2.22,4.99,4.99s-2.22,4.91-4.99,4.91-4.91-2.14-4.91-4.91,2.14-4.99,4.91-4.99M42.81,214.13h7.52v37.21h-7.52v-37.21Z" fill="#f5d7d7"/>
    <path d="M154.83,195.92c2.77,0,4.99,2.22,4.99,4.99s-2.22,4.91-4.99,4.91-4.91-2.14-4.91-4.91,2.14-4.99,4.91-4.99M151.11,214.13h7.52v37.21h-7.52v-37.21Z" fill="#f5d7d7"/>
    <path d="M78.47,251.87c-3.33,0-6.81-.95-9.34-2.45-5.62-3.33-9.5-9.5-9.5-16.94s3.96-13.69,9.58-17.02c2.53-1.5,5.62-2.38,9.1-2.38,4.2,0,8.23,1.27,11.64,4.2v-3.4h7.28v48.67l-7.52,7.54v-22.24c-3.01,2.61-6.81,4.04-11.24,4.04M89.71,225.51c-2.3-3.01-6.1-5.3-10.61-5.3-7.2,0-11.95,5.78-11.95,12.27s5.14,12.27,12.35,12.27c3.8,0,7.68-1.9,10.21-5.3v-13.93Z" fill="#f5d7d7"/>
    <path d="M109.68,245.55c-2.3-2.85-3.4-6.49-3.4-12.75v-19h7.52v20.19c0,3.8.79,5.86,2.14,7.44,1.66,1.98,4.35,3.25,7.2,3.25,4.59,0,8.31-2.77,10.45-5.3v-25.57h7.52v37.21h-7.28v-3.4c-1.66,1.58-5.78,4.2-10.92,4.2s-10.13-2.37-13.22-6.25" fill="#f5d7d7"/>
    <path d="M197.08,247.61c-3.01,2.69-7.05,4.2-11.48,4.2-3.33,0-6.81-.95-9.34-2.45-5.62-3.32-9.5-9.5-9.5-16.94s3.96-13.69,9.58-17.02c2.53-1.5,5.62-2.37,9.1-2.37,4.04,0,8.07,1.27,11.4,4.04v-22.24h7.52v56.2h-7.28v-3.4ZM196.84,225.44c-2.3-3.01-6.1-5.3-10.61-5.3-7.2,0-11.95,5.78-11.95,12.27s5.14,12.27,12.35,12.27c3.8,0,7.68-1.9,10.21-5.3v-13.93Z" fill="#f5d7d7"/>
    <path d="M267.03,217.38c2.06-1.74,5.78-4.04,10.92-4.04,5.46,0,10.37,2.53,13.54,6.57,2.38,3.01,3.64,6.81,3.64,13.22v18.21h-7.52v-18.6c0-4.75-.87-6.97-2.22-8.63-1.74-2.22-4.59-3.64-7.68-3.64-4.91,0-8.47,2.61-10.69,5.3v25.57h-7.52v-56.2h7.52v22.24Z" fill="#f5d7d7"/>
    <path d="M400.31,247.61c-3.01,2.69-7.05,4.2-11.48,4.2-3.33,0-6.81-.95-9.34-2.45-5.62-3.32-9.5-9.5-9.5-16.94s3.96-13.69,9.58-17.02c2.53-1.5,5.62-2.37,9.1-2.37,4.2,0,8.23,1.27,11.64,4.2v-3.4h7.28v37.21h-7.28v-3.4ZM400.07,225.44c-2.3-3.01-6.1-5.3-10.61-5.3-7.2,0-11.95,5.78-11.95,12.27s5.14,12.27,12.35,12.27c3.8,0,7.68-1.9,10.21-5.3v-13.93Z" fill="#f5d7d7"/>
    <path d="M444.59,247.61c-3.01,2.69-7.05,4.2-11.48,4.2-3.33,0-6.81-.95-9.34-2.45-5.62-3.32-9.5-9.5-9.5-16.94s3.96-13.69,9.58-17.02c2.53-1.5,5.62-2.37,9.1-2.37,4.04,0,8.07,1.27,11.4,4.04v-22.24h7.52v56.2h-7.28v-3.4ZM444.35,225.44c-2.3-3.01-6.1-5.3-10.61-5.3-7.2,0-11.95,5.78-11.95,12.27s5.14,12.27,12.35,12.27c3.8,0,7.68-1.9,10.21-5.3v-13.93Z" fill="#f5d7d7"/>
    <path d="M303.81,214.1v37.24h7.53v-24.64c2.06-3.56,6.18-6.26,10.06-6.26,1.07,0,1.87.07,2.66.25v-7.29c-.64-.06-1.3-.09-1.78-.09-5.47,0-9.35,2.54-11.17,5.07v-4.28h-7.29Z" fill="#f5d7d7"/>
    <path d="M348.01,245.21c-6.51,0-11.67-5-12.07-11.27h22.29l6.08-6.08c-1.75-8.75-8.56-14.96-17.49-14.96-10.56,0-18.18,8.25-18.18,19.45s8.41,19.45,19.29,19.45c7.62,0,12.94-3.41,15.72-6.99l-4.92-4.68c-2.14,2.38-5.16,5.08-10.72,5.08M347.06,219.49c4.45,0,8.74,3.33,9.84,8.1h-20.32c1.27-4.84,5.64-8.1,10.48-8.1" fill="#f5d7d7"/>
  </g>
  <g>
    <path d="M461.8,194.74h6.52v.9h-2.75v7h-1.02v-7h-2.75v-.9Z" fill="#f5d7d7"/>
    <path d="M473.37,202.64l-2.5-6.02v6.02h-.96v-7.9h1.14l2.68,6.48,2.66-6.48h1.11v7.9h-.96v-6.02l-2.47,6.02h-.69Z" fill="#f5d7d7"/>
  </g>
  <g>
    <path d="M208.58,0h-.79c-7.65,0-13.87,6.22-13.87,13.87v84.98c0,7.65,6.22,13.87,13.87,13.87h19.61c7.65,0,13.87-6.22,13.87-13.87v-.79h-32.69V0Z" fill="#eb5523"/>
    <path d="M227.4,45.76c-7.65,0-13.87,6.22-13.87,13.87v.79h32.69v98.06h.79c7.65,0,13.87-6.22,13.87-13.87v-78.56c0-3.1,2.52-5.62,5.62-5.62h26.27c7.65,0,13.87-6.22,13.87-13.87v-.79h-79.24Z" fill="#eb5523"/>
    <path d="M175.1,98.06h-26.94v.79c0,7.65,6.22,13.87,13.87,13.87h26.94v-.79c0-7.65-6.22-13.87-13.87-13.87Z" fill="#eb5523"/>
    <path d="M175.1,45.76h-26.94v.79c0,7.65,6.22,13.87,13.87,13.87h26.94v-.79c0-7.65-6.22-13.87-13.87-13.87Z" fill="#eb5523"/>
    <path d="M194.71,117.67h-.79v26.94c0,7.65,6.22,13.87,13.87,13.87h.79v-26.94c0-7.65-6.22-13.87-13.87-13.87Z" fill="#eb5523"/>
    <path d="M260.08,40.81h.79V13.87c0-7.65-6.22-13.87-13.87-13.87h-.79v26.94c0,7.65,6.22,13.87,13.87,13.87Z" fill="#eb5523"/>
    <path d="M292.77,98.06h-26.94v.79c0,7.65,6.22,13.87,13.87,13.87h26.94v-.79c0-7.65-6.22-13.87-13.87-13.87Z" fill="#eb5523"/>
  </g>
</svg>