<?xml version="1.0" encoding="UTF-8"?>
<svg id="Warstwa_2" data-name="Warstwa 2" xmlns="http://www.w3.org/2000/svg" viewBox="0 0 111.67 111.67">
  <g id="Warstwa_1-2" data-name="Warstwa 1">
    <g>
      <path d="M42.57,0h-.56c-5.39,0-9.77,4.38-9.77,9.77v59.88c0,5.39,4.38,9.77,9.77,9.77h13.82c5.39,0,9.77-4.38,9.77-9.77v-.56h-23.03V0Z" fill="#ea5624"/>
      <path d="M55.83,32.24c-5.39,0-9.77,4.38-9.77,9.77v.56h23.03v69.09h.56c5.39,0,9.77-4.38,9.77-9.77v-55.36c0-2.19,1.78-3.96,3.96-3.96h18.51c5.39,0,9.77-4.38,9.77-9.77v-.56h-55.83Z" fill="#ea5624"/>
      <path d="M18.98,69.09H0v.56c0,5.39,4.38,9.77,9.77,9.77h18.98v-.56c0-5.39-4.38-9.77-9.77-9.77Z" fill="#ea5624"/>
      <path d="M18.98,32.24H0v.56c0,5.39,4.38,9.77,9.77,9.77h18.98v-.56c0-5.39-4.38-9.77-9.77-9.77Z" fill="#ea5624"/>
      <path d="M32.8,82.91h-.56v18.98c0,5.39,4.38,9.77,9.77,9.77h.56v-18.98c0-5.39-4.38-9.77-9.77-9.77Z" fill="#ea5624"/>
      <path d="M78.86,28.76h.56V9.77c0-5.39-4.38-9.77-9.77-9.77h-.56v18.98c0,5.39,4.38,9.77,9.77,9.77Z" fill="#ea5624"/>
      <path d="M101.89,69.09h-18.98v.56c0,5.39,4.38,9.77,9.77,9.77h18.98v-.56c0-5.39-4.38-9.77-9.77-9.77Z" fill="#ea5624"/>
    </g>
  </g>
</svg>