<svg width="40" height="40" viewBox="0 0 40 40" fill="none" xmlns="http://www.w3.org/2000/svg">
<g clip-path="url(#clip0_455_6815)">
<path d="M21.887 2.26415C30.6266 2.26415 37.736 9.37358 37.736 18.1132C37.736 18.7396 38.2417 19.2453 38.8681 19.2453C39.4945 19.2453 40.0002 18.7396 40.0002 18.1132C40.0002 8.1283 31.8719 0 21.887 0C21.2605 0 20.7549 0.50566 20.7549 1.13208C20.7549 1.75849 21.2605 2.26415 21.887 2.26415Z" fill="black"/>
<path d="M21.887 9.81127C26.4681 9.81127 30.1888 13.532 30.1888 18.1132C30.1888 18.7396 30.6945 19.2452 31.3209 19.2452C31.9473 19.2452 32.453 18.7396 32.453 18.1132C32.453 12.2867 27.7134 7.54712 21.887 7.54712C21.2605 7.54712 20.7549 8.05278 20.7549 8.67919C20.7549 9.30561 21.2605 9.81127 21.887 9.81127Z" fill="black"/>
<path d="M35.0943 24.5283H29.434C27.8943 24.5283 26.4302 25.2604 25.517 26.483L24.8453 27.3585C24.634 27.6377 24.2642 27.7359 23.9396 27.5925C18.9585 25.1472 14.8679 21.0491 12.4151 16.0755C12.2566 15.7509 12.3547 15.366 12.6264 15.1547L13.5094 14.4906C14.7396 13.5698 15.4717 12.0981 15.4717 10.566V4.90566C15.4717 2.20377 13.2679 0 10.566 0H4.90566C2.20377 0 0 2.20377 0 4.90566C0 24.2566 15.7434 40 35.0943 40C37.7962 40 40 37.7962 40 35.0943V29.434C40 26.7321 37.7962 24.5283 35.0943 24.5283ZM37.7359 35.0943C37.7359 36.5509 36.5509 37.7359 35.0943 37.7359C16.9887 37.7359 2.26415 23.0113 2.26415 4.90566C2.26415 3.44906 3.44906 2.26415 4.90566 2.26415H10.566C12.0226 2.26415 13.2075 3.44906 13.2075 4.90566V10.566C13.2075 11.3962 12.8151 12.1811 12.1509 12.6792L11.2604 13.3509C10.1208 14.2189 9.75094 15.7887 10.3774 17.0792C13.0491 22.5132 17.517 26.9736 22.9509 29.6377C22.9585 29.6377 22.966 29.6453 22.9811 29.6528C24.2717 30.2491 25.7811 29.8717 26.6415 28.7396L27.3208 27.8566C27.8189 27.1925 28.6038 26.8 29.434 26.8H35.0943C36.5509 26.8 37.7359 27.9849 37.7359 29.4415V35.1019V35.0943Z" fill="black"/>
</g>
<defs>
<clipPath id="clip0_455_6815">
<rect width="40" height="40" fill="white"/>
</clipPath>
</defs>
</svg>
