<svg width="40" height="38" viewBox="0 0 40 38" fill="none" xmlns="http://www.w3.org/2000/svg">
<g clip-path="url(#clip0_455_6813)">
<path d="M38.9356 10.0154L33.4801 2.13703C32.567 0.797624 31.0503 0 29.428 0H10.5636C8.93375 0 7.41706 0.805148 6.51157 2.13703L1.06354 10.0004C-0.536155 12.2729 -0.309783 15.3731 1.61438 17.3822C2.22559 18.0218 2.96507 18.5034 3.77246 18.8044V33.1089C3.77246 35.8028 5.97582 38 8.6772 38H31.3144C34.0158 38 36.2192 35.8028 36.2192 33.1089V18.7968C36.6719 18.6238 37.1096 18.4206 37.517 18.1347C40.158 16.2836 40.7919 12.6416 38.9432 10.0154H38.9356ZM24.5233 35.7426H15.4684V27.4653C15.4684 27.0515 15.8079 26.7129 16.2229 26.7129H23.7687C24.1837 26.7129 24.5233 27.0515 24.5233 27.4653V35.7426ZM33.9554 33.1089C33.9554 34.5612 32.7708 35.7426 31.3144 35.7426H26.787V27.4653C26.787 25.8024 25.4363 24.4554 23.7687 24.4554H16.2229C14.5553 24.4554 13.2046 25.8024 13.2046 27.4653V35.7426H8.6772C7.22087 35.7426 6.03619 34.5612 6.03619 33.1089V19.1806C7.47743 19.143 8.83566 18.5786 9.88452 17.5778C10.2618 17.2166 10.8579 17.2166 11.2428 17.5778C12.3746 18.6539 13.8234 19.1956 15.2797 19.1956C16.7361 19.1956 18.1848 18.6539 19.3167 17.5778C19.694 17.2166 20.2901 17.2166 20.6749 17.5778C22.9387 19.7299 26.4852 19.7299 28.7489 17.5778C29.1262 17.2166 29.7223 17.2166 30.1071 17.5778C30.1222 17.5929 30.1373 17.6079 30.1524 17.623C31.2163 18.6162 32.5746 19.1354 33.9554 19.1806V33.1164V33.1089ZM36.2116 16.2836C34.8157 17.2618 32.9066 17.1188 31.6691 15.945C31.654 15.9299 31.6389 15.9149 31.6163 15.8998C30.3561 14.7485 28.4244 14.7636 27.1794 15.945C25.7909 17.2618 23.6178 17.2618 22.2294 15.945C20.9692 14.7485 18.9998 14.7485 17.7472 15.945C16.3588 17.2618 14.1856 17.2693 12.7972 15.945C11.537 14.741 9.5676 14.741 8.30746 15.945C7.61325 16.6071 6.70021 16.9533 5.74945 16.9307C4.79114 16.9081 3.90074 16.5168 3.23672 15.8246C2.05958 14.5905 1.91621 12.6867 2.9047 11.2871L8.36028 3.40871C8.85075 2.68634 9.67324 2.2499 10.5485 2.2499H29.4129C30.2882 2.2499 31.1032 2.67881 31.6012 3.40871L37.0718 11.3022C38.2112 12.9125 37.8189 15.1473 36.2041 16.2836H36.2116Z" fill="black"/>
</g>
<defs>
<clipPath id="clip0_455_6813">
<rect width="40" height="38" fill="white"/>
</clipPath>
</defs>
</svg>
